{
  "accessors": [
    {
      "bufferView": 3,
      "componentType": 5126,
      "count": 2647,
      "max": [
        3.3599300384521484,
        11.791300773620605,
        8.224081993103027
      ],
      "min": [
        -3.3599300384521484,
        -0.0802263617515564,
        -8.211380004882813
      ],
      "type": "VEC3"
    },
    {
      "bufferView": 3,
      "byteOffset": 31764,
      "componentType": 5126,
      "count": 2647,
      "max": [
        0.9996909499168396,
        0.9989014267921448,
        0.9998269081115723
      ],
      "min": [
        -0.9996909499168396,
        -0.9862602353096008,
        -0.9990988373756409
      ],
      "type": "VEC3"
    },
    {
      "bufferView": 4,
      "componentType": 5126,
      "count": 2647,
      "max": [
        1.0,
        1.0,
        1.0,
        1.0
      ],
      "min": [
        0.5960784554481506,
        0.5960784554481506,
        0.5960784554481506,
        0.0
      ],
      "type": "VEC4"
    },
    {
      "bufferView": 2,
      "componentType": 5126,
      "count": 2647,
      "max": [
        0.9892578125,
        0.9844894409179688
      ],
      "min": [
        -0.48681640625,
        0.01708984375
      ],
      "type": "VEC2"
    },
    {
      "bufferView": 1,
      "componentType": 5125,
      "count": 7617,
      "type": "SCALAR"
    },
    {
      "bufferView": 3,
      "byteOffset": 63528,
      "componentType": 5126,
      "count": 3565,
      "max": [
        3.141350030899048,
        11.575000762939453,
        8.417351722717285
      ],
      "min": [
        -3.141350030899048,
        -0.0403657965362072,
        -7.876910209655762
      ],
      "type": "VEC3"
    },
    {
      "bufferView": 3,
      "byteOffset": 106308,
      "componentType": 5126,
      "count": 3565,
      "max": [
        0.9996417760848999,
        0.9995471835136414,
        0.9993297457695007
      ],
      "min": [
        -0.9996417760848999,
        -1.0,
        -0.9998353719711304
      ],
      "type": "VEC3"
    },
    {
      "bufferView": 4,
      "byteOffset": 42352,
      "componentType": 5126,
      "count": 3565,
      "max": [
        1.0,
        1.0,
        1.0,
        1.0
      ],
      "min": [
        1.0,
        1.0,
        1.0,
        1.0
      ],
      "type": "VEC4"
    },
    {
      "bufferView": 2,
      "byteOffset": 21176,
      "componentType": 5126,
      "count": 3565,
      "max": [
        0.99072265625,
        0.9858016967773438
      ],
      "min": [
        -0.4931640625,
        0.0185546875
      ],
      "type": "VEC2"
    },
    {
      "bufferView": 1,
      "byteOffset": 30468,
      "componentType": 5125,
      "count": 9528,
      "type": "SCALAR"
    },
    {
      "bufferView": 3,
      "byteOffset": 149088,
      "componentType": 5126,
      "count": 165,
      "max": [
        3.32463002204895,
        6.116641044616699,
        -2.8094394207000732
      ],
      "min": [
        -3.3246400356292725,
        0.9147546291351318,
        -4.796050548553467
      ],
      "type": "VEC3"
    },
    {
      "bufferView": 3,
      "byteOffset": 151068,
      "componentType": 5126,
      "count": 165,
      "max": [
        0.9998117685317993,
        0.5479647517204285,
        0.35383135080337524
      ],
      "min": [
        -0.9998112320899963,
        -0.7094517946243286,
        -0.15867985785007477
      ],
      "type": "VEC3"
    },
    {
      "bufferView": 4,
      "byteOffset": 99392,
      "componentType": 5126,
      "count": 165,
      "max": [
        1.0,
        1.0,
        1.0,
        1.0
      ],
      "min": [
        0.5960784554481506,
        0.5960784554481506,
        0.5960784554481506,
        0.0
      ],
      "type": "VEC4"
    },
    {
      "bufferView": 2,
      "byteOffset": 49696,
      "componentType": 5126,
      "count": 165,
      "max": [
        0.966796875,
        0.27197265625
      ],
      "min": [
        -0.160888671875,
        0.1982421875
      ],
      "type": "VEC2"
    },
    {
      "bufferView": 1,
      "byteOffset": 68580,
      "componentType": 5125,
      "count": 333,
      "type": "SCALAR"
    },
    {
      "bufferView": 5,
      "componentType": 5126,
      "count": 31,
      "max": [
        1.0,
        0.9977720975875854,
        1.0,
        0.0,
        0.8659155964851379,
        1.0000001192092896,
        8.673470119902049e-07,
        0.0,
        1.0000003576278687,
        0.98481684923172,
        1.0,
        0.0,
        9.786253929138184,
        4.470044136047363,
        5.156861782073975,
        1.0
      ],
      "min": [
        -0.06671619415283203,
        -0.9977720975875854,
        -1.0,
        0.0,
        -0.9977721571922302,
        -1.000000238418579,
        -1.343588280633412e-07,
        0.0,
        -0.9999999403953552,
        -0.9816391468048096,
        -1.0,
        0.0,
        -7.734220504760742,
        -8.315649032592773,
        -5.156861782073975,
        1.0
      ],
      "type": "MAT4"
    },
    {
      "bufferView": 0,
      "componentType": 5123,
      "count": 2647,
      "type": "VEC4"
    },
    {
      "bufferView": 4,
      "byteOffset": 102032,
      "componentType": 5126,
      "count": 2647,
      "max": [
        1.0,
        0.5,
        0.30000001192092896,
        0.14000000059604645
      ],
      "min": [
        0.3100000023841858,
        0.0,
        0.0,
        0.0
      ],
      "type": "VEC4"
    },
    {
      "bufferView": 0,
      "byteOffset": 21176,
      "componentType": 5123,
      "count": 3565,
      "type": "VEC4"
    },
    {
      "bufferView": 4,
      "byteOffset": 144384,
      "componentType": 5126,
      "count": 3565,
      "max": [
        1.0,
        0.5,
        0.30000001192092896,
        0.14000000059604645
      ],
      "min": [
        0.3100000023841858,
        0.0,
        0.0,
        0.0
      ],
      "type": "VEC4"
    },
    {
      "bufferView": 0,
      "byteOffset": 49696,
      "componentType": 5123,
      "count": 165,
      "type": "VEC4"
    },
    {
      "bufferView": 4,
      "byteOffset": 201424,
      "componentType": 5126,
      "count": 165,
      "max": [
        1.0,
        0.4747474789619446,
        0.05000000074505806,
        0.029999999329447746
      ],
      "min": [
        0.5252525210380554,
        0.0,
        0.0,
        0.0
      ],
      "type": "VEC4"
    }
  ],
  "asset": {
    "extras": {
      "author": "thegageinator (https://sketchfab.com/thegageinator)",
      "license": "CC-BY-4.0 (http://creativecommons.org/licenses/by/4.0/)",
      "source": "https://sketchfab.com/3d-models/nintendog-2-smash-bros-ultimate-f93f71de491a4bfc8cc815dd96797b69",
      "title": "Nintendog 2 Smash bros ultimate"
    },
    "generator": "Sketchfab-16.59.0",
    "version": "2.0"
  },
  "bufferViews": [
    {
      "buffer": 0,
      "byteLength": 51016,
      "byteStride": 8,
      "name": "shortBufferViews",
      "target": 34962
    },
    {
      "buffer": 0,
      "byteLength": 69912,
      "byteOffset": 51016,
      "name": "floatBufferViews",
      "target": 34963
    },
    {
      "buffer": 0,
      "byteLength": 51016,
      "byteOffset": 120928,
      "byteStride": 8,
      "name": "floatBufferViews",
      "target": 34962
    },
    {
      "buffer": 0,
      "byteLength": 153048,
      "byteOffset": 171944,
      "byteStride": 12,
      "name": "floatBufferViews",
      "target": 34962
    },
    {
      "buffer": 0,
      "byteLength": 204064,
      "byteOffset": 324992,
      "byteStride": 16,
      "name": "floatBufferViews",
      "target": 34962
    },
    {
      "buffer": 0,
      "byteLength": 1984,
      "byteOffset": 529056,
      "name": "floatBufferViews"
    }
  ],
  "buffers": [
    {
      "byteLength": 531040,
      "uri": "scene.bin"
    }
  ],
  "images": [
    {
      "uri": "textures/asf_nintendogs_alp_mat_baseColor.png"
    }
  ],
  "materials": [
    {
      "name": "asf_nintendogs_alp_mat",
      "pbrMetallicRoughness": {
        "baseColorTexture": {
          "index": 0
        },
        "metallicFactor": 0.0
      }
    },
    {
      "name": "asf_nintendogs_mat",
      "pbrMetallicRoughness": {
        "baseColorTexture": {
          "index": 0
        },
        "metallicFactor": 0.0
      }
    },
    {
      "name": "pasted__asf_nintendogs_alp_mat",
      "pbrMetallicRoughness": {
        "baseColorTexture": {
          "index": 0
        },
        "metallicFactor": 0.0
      }
    }
  ],
  "meshes": [
    {
      "name": "Object_0",
      "primitives": [
        {
          "attributes": {
            "COLOR_0": 2,
            "JOINTS_0": 16,
            "NORMAL": 1,
            "POSITION": 0,
            "TEXCOORD_0": 3,
            "WEIGHTS_0": 17
          },
          "indices": 4,
          "material": 0,
          "mode": 4
        }
      ]
    },
    {
      "name": "Object_1",
      "primitives": [
        {
          "attributes": {
            "COLOR_0": 7,
            "JOINTS_0": 18,
            "NORMAL": 6,
            "POSITION": 5,
            "TEXCOORD_0": 8,
            "WEIGHTS_0": 19
          },
          "indices": 9,
          "material": 1,
          "mode": 4
        }
      ]
    },
    {
      "name": "Object_2",
      "primitives": [
        {
          "attributes": {
            "COLOR_0": 12,
            "JOINTS_0": 20,
            "NORMAL": 11,
            "POSITION": 10,
            "TEXCOORD_0": 13,
            "WEIGHTS_0": 21
          },
          "indices": 14,
          "material": 2,
          "mode": 4
        }
      ]
    }
  ],
  "nodes": [
    {
      "children": [
        1
      ],
      "matrix": [
        1.0,
        0.0,
        0.0,
        0.0,
        0.0,
        2.220446049250313e-16,
        -1.0,
        0.0,
        0.0,
        1.0,
        2.220446049250313e-16,
        0.0,
        0.0,
        0.0,
        0.0,
        1.0
      ],
      "name": "Sketchfab_model"
    },
    {
      "children": [
        2
      ],
      "name": "root"
    },
    {
      "children": [
        3
      ],
      "matrix": [
        1.0,
        0.0,
        0.0,
        0.0,
        0.0,
        2.220446049250313e-16,
        1.0,
        0.0,
        0.0,
        -1.0,
        2.220446049250313e-16,
        0.0,
        0.0,
        0.0,
        0.0,
        1.0
      ],
      "name": "GLTF_SceneRootNode"
    },
    {
      "children": [
        4
      ],
      "matrix": [
        1.0,
        0.0,
        0.0,
        0.0,
        0.0,
        0.0,
        1.0,
        0.0,
        0.0,
        -1.0,
        0.0,
        0.0,
        0.0,
        0.0,
        0.0,
        1.0
      ],
      "name": "model-armature_34"
    },
    {
      "children": [
        5,
        7,
        9,
        11,
        6,
        8,
        10
      ],
      "name": "GLTF_created_0"
    },
    {
      "children": [
        12
      ],
      "name": "GLTF_created_0_rootJoint"
    },
    {
      "name": "GamemodelShape_31"
    },
    {
      "mesh": 0,
      "name": "Object_7",
      "skin": 0
    },
    {
      "name": "GamemodelShape.001_32"
    },
    {
      "mesh": 1,
      "name": "Object_9",
      "skin": 0
    },
    {
      "name": "GamemodelShape.002_33"
    },
    {
      "mesh": 2,
      "name": "Object_11",
      "skin": 0
    },
    {
      "children": [
        13
      ],
      "name": "Trans_30",
      "rotation": [
        -0.7071068286895752,
        0.0,
        0.0,
        0.7071068286895752
      ]
    },
    {
      "children": [
        14
      ],
      "name": "Rot_29",
      "scale": [
        1.0,
        0.9999999403953552,
        1.0
      ],
      "translation": [
        0.0,
        5.525000095367432,
        0.0
      ]
    },
    {
      "children": [
        15,
        27
      ],
      "name": "Hip_28",
      "rotation": [
        0.0,
        -0.7071068286895752,
        0.0,
        0.7071068286895752
      ]
    },
    {
      "children": [
        16,
        20,
        24
      ],
      "name": "Leg_C_12",
      "rotation": [
        0.0,
        -1.0,
        0.0,
        7.549790126404332e-08
      ]
    },
    {
      "children": [
        17
      ],
      "name": "LegL_4",
      "rotation": [
        -0.6428072452545166,
        0.7660279870033264,
        4.853058399589827e-08,
        5.7833503319670854e-08
      ],
      "scale": [
        1.0,
        0.9999998211860657,
        1.0
      ],
      "translation": [
        2.950899839401245,
        0.7906908988952637,
        1.4625003337860107
      ]
    },
    {
      "children": [
        18
      ],
      "name": "KneeL_3",
      "rotation": [
        -6.275692854273984e-09,
        6.796368268169317e-08,
        -0.573550283908844,
        0.8191704154014587
      ],
      "scale": [
        0.9999998807907104,
        0.9999999403953552,
        1.0
      ],
      "translation": [
        2.6338112354278564,
        0.00011805610120063648,
        -2.447470137667551e-07
      ]
    },
    {
      "children": [
        19
      ],
      "name": "FootL_2",
      "rotation": [
        2.660085662853362e-08,
        -3.917014712584432e-09,
        0.5877877473831177,
        0.8090152144432068
      ],
      "scale": [
        0.9999999403953552,
        0.9999999403953552,
        1.0
      ],
      "translation": [
        2.2581748962402344,
        -3.7266971048666164e-05,
        -1.0332501432230856e-07
      ]
    },
    {
      "name": "ToeL_1",
      "rotation": [
        0.7771520614624023,
        0.6293129324913025,
        -7.2903944214886e-08,
        2.7508134436970977e-08
      ],
      "scale": [
        0.9999999403953552,
        0.9999998211860657,
        1.0
      ],
      "translation": [
        2.006340265274048,
        -4.978227298124693e-05,
        -1.6553016735088022e-07
      ]
    },
    {
      "children": [
        21
      ],
      "name": "LegR_8",
      "rotation": [
        -0.6428072452545166,
        0.7660279870033264,
        4.853058399589827e-08,
        5.7833503319670854e-08
      ],
      "scale": [
        1.0,
        0.9999998211860657,
        1.0
      ],
      "translation": [
        2.9509005546569824,
        0.7906908392906189,
        -1.4624996185302734
      ]
    },
    {
      "children": [
        22
      ],
      "name": "KneeR_7",
      "rotation": [
        -6.275692854273984e-09,
        6.796368268169317e-08,
        -0.573550283908844,
        0.8191704154014587
      ],
      "scale": [
        0.9999998807907104,
        0.9999999403953552,
        1.0
      ],
      "translation": [
        2.633802652359009,
        0.00011957911192439497,
        -2.4474564952470246e-07
      ]
    },
    {
      "children": [
        23
      ],
      "name": "FootR_6",
      "rotation": [
        2.660085662853362e-08,
        -3.917014712584432e-09,
        0.5877877473831177,
        0.8090152144432068
      ],
      "scale": [
        0.9999999403953552,
        0.9999999403953552,
        1.0
      ],
      "translation": [
        2.258197784423828,
        -3.89359011023771e-05,
        -1.0332573907589904e-07
      ]
    },
    {
      "name": "ToeR_5",
      "rotation": [
        0.7771516442298889,
        0.6293134689331055,
        -7.290373105206527e-08,
        2.750815042418253e-08
      ],
      "translation": [
        2.0063424110412598,
        -3.993511199951172e-05,
        7.288853254294736e-08
      ]
    },
    {
      "children": [
        25
      ],
      "name": "Tail1_11",
      "rotation": [
        0.0,
        -3.178651297730539e-08,
        0.0,
        1.0
      ],
      "scale": [
        1.0,
        0.9999999403953552,
        1.0
      ],
      "translation": [
        4.159220218658447,
        1.3514103889465332,
        4.462195022369997e-07
      ]
    },
    {
      "children": [
        26
      ],
      "name": "Tail2_10",
      "rotation": [
        0.0,
        -3.552713678800501e-15,
        0.0,
        1.0
      ],
      "translation": [
        1.6249995231628418,
        0.0,
        7.103104593397802e-08
      ]
    },
    {
      "name": "Tailnc_eff_9",
      "rotation": [
        0.0,
        -1.7763568394002505e-15,
        0.0,
        1.0
      ],
      "translation": [
        1.9499993324279785,
        0.0,
        8.523720396169665e-08
      ]
    },
    {
      "children": [
        28,
        34,
        38
      ],
      "name": "Waist_27",
      "rotation": [
        2.6886013415605703e-09,
        -3.2067207222929994e-10,
        0.06105925887823105,
        0.9981341361999512
      ],
      "translation": [
        -1.1078005246454878e-24,
        -1.9207141144110503e-23,
        3.552713678800501e-15
      ]
    },
    {
      "children": [
        29
      ],
      "name": "Bust_18",
      "rotation": [
        8.909916360266834e-09,
        -4.477633375188361e-09,
        0.18217496573925018,
        0.9832661151885986
      ],
      "translation": [
        2.5051426887512207,
        -5.3898424084763974e-05,
        -1.1111293929388921e-07
      ]
    },
    {
      "children": [
        30
      ],
      "name": "Neck_17",
      "rotation": [
        1.1474321048865477e-08,
        1.1366123153777608e-08,
        0.2755807936191559,
        0.961277961730957
      ],
      "scale": [
        0.9999999403953552,
        0.9999999403953552,
        1.0
      ],
      "translation": [
        1.6653727293014526,
        0.00016355355910491198,
        -8.903356985001665e-08
      ]
    },
    {
      "children": [
        31,
        32,
        33
      ],
      "name": "Head_16",
      "rotation": [
        -1.8377726007656747e-08,
        -6.018187281853216e-09,
        -0.4999052584171295,
        0.866080105304718
      ],
      "scale": [
        1.0,
        0.9999998807907104,
        1.0
      ],
      "translation": [
        1.8052091598510742,
        0.00040103495121002197,
        -5.3820038203866716e-08
      ]
    },
    {
      "name": "EarL_13",
      "rotation": [
        -0.5164099335670471,
        0.4830329716205597,
        -0.5164095759391785,
        0.4830332398414612
      ],
      "scale": [
        1.0000001192092896,
        1.0,
        0.9999999403953552
      ],
      "translation": [
        0.2973490357398987,
        1.469041109085083,
        -2.4462101459503174
      ]
    },
    {
      "name": "EarR_14",
      "rotation": [
        0.5164099335670471,
        -0.4830329716205597,
        -0.5164095759391785,
        0.4830332398414612
      ],
      "scale": [
        1.0000001192092896,
        1.0,
        0.9999999403953552
      ],
      "translation": [
        0.2973492443561554,
        1.469041109085083,
        2.4462101459503174
      ]
    },
    {
      "name": "Mouth_15",
      "rotation": [
        -3.6623937216262448e-09,
        1.6713148642821807e-09,
        -0.08712844550609589,
        0.9961971044540405
      ],
      "scale": [
        0.9999998807907104,
        0.9999998807907104,
        1.0
      ],
      "translation": [
        1.3267513513565063,
        -0.8221089243888855,
        -5.799409663609367e-08
      ]
    },
    {
      "children": [
        35
      ],
      "name": "ShoulderL_22",
      "rotation": [
        0.5000354647636414,
        -0.8660049438476563,
        -1.0557564564805944e-06,
        6.847965892120556e-07
      ],
      "scale": [
        1.0000001192092896,
        0.9999999403953552,
        1.0
      ],
      "translation": [
        4.062489032745361,
        -0.4875853657722473,
        -1.4625000953674316
      ]
    },
    {
      "children": [
        36
      ],
      "name": "ArmL_21",
      "rotation": [
        1.1880185866175452e-06,
        3.906095855654712e-07,
        -0.34194260835647583,
        0.9397208094596863
      ],
      "scale": [
        1.0,
        1.0000001192092896,
        1.0
      ],
      "translation": [
        1.8961565494537354,
        0.00019855925347656012,
        4.225239536026493e-08
      ]
    },
    {
      "children": [
        37
      ],
      "name": "HandL_20",
      "rotation": [
        -2.0976316239540438e-09,
        1.3184050517978108e-09,
        0.0523359440267086,
        0.9986295104026794
      ],
      "translation": [
        1.8366012573242188,
        -0.00011416521010687575,
        -3.1413019740966774e-08
      ]
    },
    {
      "name": "FingerL10_19",
      "rotation": [
        -7.220559150589168e-10,
        -3.28511440272905e-08,
        -0.636102020740509,
        0.7716049551963806
      ],
      "scale": [
        0.9999999403953552,
        0.9999998807907104,
        1.0
      ],
      "translation": [
        1.4487403631210327,
        -8.681416511535645e-05,
        -1.1120253873286856e-07
      ]
    },
    {
      "children": [
        39
      ],
      "name": "ShoulderR_26",
      "rotation": [
        0.5000354647636414,
        -0.8660049438476563,
        -1.0557564564805944e-06,
        6.847965892120556e-07
      ],
      "scale": [
        1.0000001192092896,
        0.9999999403953552,
        1.0
      ],
      "translation": [
        4.0624775886535645,
        -0.48760417103767395,
        1.4624996185302734
      ]
    },
    {
      "children": [
        40
      ],
      "name": "ArmR_25",
      "rotation": [
        1.1880216561621637e-06,
        3.9060773815435823e-07,
        -0.34194207191467285,
        0.9397210478782654
      ],
      "translation": [
        1.8961397409439087,
        0.00018365203868597746,
        1.6142769254656741e-07
      ]
    },
    {
      "children": [
        41
      ],
      "name": "HandR_24",
      "rotation": [
        -2.100634333146445e-09,
        1.3185732505860415e-09,
        0.05233454704284668,
        0.998629629611969
      ],
      "scale": [
        1.0,
        0.9999999403953552,
        1.0
      ],
      "translation": [
        1.8365918397903442,
        -0.00011919421376660466,
        -3.1386509391495565e-08
      ]
    },
    {
      "name": "FingerR10_23",
      "rotation": [
        -7.220344322433903e-10,
        -3.285111560558107e-08,
        -0.6361011266708374,
        0.7716057300567627
      ],
      "translation": [
        1.4487403631210327,
        -9.480471635470167e-05,
        8.007115859243186e-09
      ]
    }
  ],
  "samplers": [
    {
      "magFilter": 9729,
      "minFilter": 9987,
      "wrapS": 10497,
      "wrapT": 10497
    }
  ],
  "scene": 0,
  "scenes": [
    {
      "name": "Sketchfab_Scene",
      "nodes": [
        0
      ]
    }
  ],
  "skins": [
    {
      "inverseBindMatrices": 15,
      "joints": [
        5,
        12,
        13,
        14,
        15,
        16,
        17,
        18,
        19,
        20,
        21,
        22,
        23,
        24,
        25,
        26,
        27,
        28,
        29,
        30,
        31,
        32,
        33,
        34,
        35,
        36,
        37,
        38,
        39,
        40,
        41
      ],
      "skeleton": 5
    }
  ],
  "textures": [
    {
      "sampler": 0,
      "source": 0
    }
  ]
}
